<?xml version="1.0" encoding="utf-8"?>
<svg version="1.1" id="Layer_1" xmlns="http://www.w3.org/2000/svg" xmlns:xlink="http://www.w3.org/1999/xlink" x="0px" y="0px"
	 viewBox="0 0 960 540" style="enable-background:new 0 0 960 540;" xml:space="preserve">
<style type="text/css">
	.st0{clip-path:url(#SVGID_2_);}
	.st1{fill-rule:evenodd;clip-rule:evenodd;fill:none;}
	.st2{fill-rule:evenodd;clip-rule:evenodd;fill:#ADDBD0;}
	.st3{fill-rule:evenodd;clip-rule:evenodd;fill:#81B5A8;}
	.st4{fill-rule:evenodd;clip-rule:evenodd;fill:#3F4853;}
</style>
<g>
	<defs>
		<rect id="SVGID_1_" width="960" height="540"/>
	</defs>
	<clipPath id="SVGID_2_">
		<use xlink:href="#SVGID_1_"  style="overflow:visible;"/>
	</clipPath>
	<g class="st0">
		<path class="st1" d="M0,0h960v540H0V0z"/>
		<path class="st2" d="M921.5,515.8c-29.6-33.2-75.4-52.8-112.7-32.6c-16.4,8.9-30.4,23.3-48.7,26.6c-9,1.8-18.3,1.1-27.5-0.7
			c-10.1-2.4-20.2-6.4-29.6-11.5c-24.3-13.3-46-32.8-70.7-45.4c-24.8-12.2-55.4-16-77.4,2.7c-8.2,7.1-14.7,16.8-23.1,23.9
			c-12.6,10.9-28.6,14.9-42.8,22.2c-13.4,7.3-24.8,23.1-32.5,41h252.1H944C936,533.8,929.1,524.3,921.5,515.8z"/>
		<path class="st3" d="M-25.1-15.2c-0.1,11,0.7,21.9,5.1,31.7c6.5,14.7,20.1,25.7,35.4,30.9c1.6,0.6,3.4,1.2,5.1,1.5
			c17.5,4.3,36,1.8,52.8-4.7c3.1-1.3,6.5-2.6,9.6-4.1c11.6-5.3,22.8-11.3,35.1-14.1c15-3.5,30.6-1.6,46-0.6
			c13.5,1.2,26.9,1.6,39.7-1.6c19.8-5.1,36.6-20.1,44.5-38.9C248.3-15.2-25.1-15.2-25.1-15.2z"/>
		<path class="st4" d="M964.7,411.4c-19.1-8.3-38.6-16.4-61.1-16.7c-18.4-0.2-34.5,6.6-43.8,18.6c-9.4,12.1-11,26.9-17,40
			c-7.6,17.1-24.9,33.4-44.1,44.1c-9.3,5.1-20.2,8.4-31.6,9.2c-13.4,0.8-26.5-3.4-38.6-6.8c-17.8-5.2-38.6-8.8-54.4,1.5
			c-13,8.5-12.6,22.3-4.4,32.4c4.6,5.8,11.7,10.3,17.8,15.2c8.7,6.7,15.4,14.2,19.6,23.1c5.4,11.9,5,25,0,36.9
			c-0.5,1.1,1.7,1.6,2.3,0.5c6-13.4,5.6-28.6-1.9-41.6c-3.6-6.6-8.6-12.3-14.8-17.7c-7.6-6.2-16.2-11.6-22.1-18.9
			c-6.6-7.9-5.6-17.4,0.9-25c8.6-10.2,25.6-10.8,39.9-8.5c21.9,3.5,40,13.2,63.2,9.9c19.6-2.8,35.7-14.1,47.9-25
			c13.4-12.1,22.1-25.4,27.3-40.7c5.2-15.4,9.4-32.2,29.2-40.9c23.5-10.4,52.6-1.1,74.1,7.6c3.4,1.4,6.8,2.9,10.1,4.4
			C964.8,413.6,966,412,964.7,411.4z"/>
		<path class="st4" d="M-11-17.4c11.3,24,30.5,48.1,59.8,46.2c16-0.9,30.7-9.8,45-16.3c12.4-5.8,25.6-10,39.3-10.9
			c12.3-1.2,24,1.8,34.9,7.7c11.8,6.3,22,15.3,35,19.1c34.1,9.8,57.1-27.1,70.7-51.8c0.6-1.1,2.5-0.1,1.7,1.1
			c-13.2,24.1-29.7,51.1-60.1,54c-13.4,1.2-25.4-6.1-36.2-12.9c-14.6-9.4-28.2-15.9-45.9-15C115.8,4.6,99.7,12,84.3,19.4
			c-13.4,6.3-27,12.3-42.2,11.8c-26.5-1-44.5-25.7-54.7-47.3C-13.4-17.7-11.5-18.6-11-17.4z"/>
	</g>
</g>
</svg>
